# xmcd
#
# Track frame offsets:
#	150
#	15713
#	35815
#	51690
#	65220
#	78294
#	96619
#	112968
#	130837
#	144711
#	157422
#	173524
#	189677
#	204810
#
# Disc length: 2958 seconds
#
# Revision: 0
# Processed by: cddbd v1.5.2PL0 Copyright (c) Steve Scherf et al.
# Submitted via: EasyCDDAExtractor 11.1.0.1
#
DISCID=d30b8c0e
DTITLE=Various Artist - Mr music country
DYEAR=2010
DGENRE=country
TTITLE0=George Jones - I'm a long gone daddy
TTITLE1=Joey Allcorn - Waitin' by the railroad tracks
TTITLE2=Mike Siler - One step away
TTITLE3=Amber digby - This heart of mine
TTITLE4=The Survivors - My confession
TTITLE5=Cliff Wagner and the old #7 - Hobo's lullaby
TTITLE6=Gaylynn Robinson - Love of a renegade
TTITLE7=Billy Yates - I just can't see it
TTITLE8=Landon Dodd - Mr wright and mrs wrong
TTITLE9=Gretchen Wilson - California girls
TTITLE10=Grant Peeples - Pitiful little town
TTITLE11=Charlie Robinson - If rain don't stop
TTITLE12=Whisky and Dynamite - Keep on the sunny side
TTITLE13=Alan Jackson - Nothing sure looked good on you
EXTD=
EXTT0=
EXTT1=
EXTT2=
EXTT3=
EXTT4=
EXTT5=
EXTT6=
EXTT7=
EXTT8=
EXTT9=
EXTT10=
EXTT11=
EXTT12=
EXTT13=
PLAYORDER=
